<?xml version="1.0" encoding="utf-8"?>
<!-- Generator: Adobe Illustrator 25.3.1, SVG Export Plug-In . SVG Version: 6.00 Build 0)  -->
<svg version="1.1" id="레이어_1" xmlns="http://www.w3.org/2000/svg" xmlns:xlink="http://www.w3.org/1999/xlink" x="0px"
	 y="0px" viewBox="0 0 240 27.8" style="enable-background:new 0 0 240 27.8;" xml:space="preserve">
<style type="text/css">
	.st0{fill:#333132;}
	.st1{fill:#D51C29;}
	.st2{fill:#24338A;}
</style>
<g>
	<path class="st0" d="M79.3,27.2v-26h10.1c2.7,0,4.7,0.6,6,1.8c1.3,1.2,2,2.9,2,5.3c0,2.9-0.9,5-2.7,6.5c-1.8,1.4-4.5,2.2-8.2,2.2
		h-2v10.3L79.3,27.2L79.3,27.2z M84.5,13.4h1.3c2,0,3.5-0.4,4.5-1.3c1-0.9,1.5-2.2,1.5-3.9c0-1.4-0.4-2.3-1.1-2.8
		c-0.8-0.5-2.2-0.8-4.3-0.8h-1.9L84.5,13.4L84.5,13.4z"/>
	<path class="st0" d="M106.6,27.2l-8-26h5.4l5.9,19.2l5.9-19.2h3.9l-8,26L106.6,27.2L106.6,27.2z"/>
	<path class="st0" d="M134.7,27.2v-26h5.2v11.4h0.2l8.8-11.4h4.6l-8.9,11.5l9.2,14.5h-6.2l-7.6-12h-0.2v12L134.7,27.2L134.7,27.2z"
		/>
	<path class="st0" d="M164.5,27.8c-3.2,0-5.8-1.2-7.5-3.6c-1.8-2.4-2.7-5.7-2.7-10.1c0-4.4,0.9-7.7,2.7-10.1
		c1.8-2.4,4.4-3.5,7.7-3.5c3.3,0,5.9,1.2,7.7,3.5s2.7,5.7,2.7,10c0,4.4-0.9,7.8-2.7,10.2C170.5,26.7,167.9,27.8,164.5,27.8z
		 M164.6,24.4c1.6,0,2.8-0.9,3.6-2.6c0.8-1.7,1.2-4.3,1.2-7.7c0-3.4-0.4-5.9-1.2-7.5s-2-2.5-3.6-2.5s-2.8,0.8-3.6,2.5
		s-1.2,4.2-1.2,7.6s0.4,5.9,1.2,7.6C161.8,23.5,163,24.4,164.6,24.4z"/>
	<path class="st0" d="M177.9,27.2v-26h9.9c2.3,0,4.1,0.6,5.3,1.7c1.3,1.2,1.9,2.8,1.9,4.8c0,1.6-0.4,3.1-1.2,4.4
		c-0.8,1.3-2,2.3-3.6,3.2l6.6,11.9h-6L185,16.6h-1.9v10.6L177.9,27.2L177.9,27.2z M183.1,13.1h1c1.7,0,3-0.5,4-1.4
		c1-0.9,1.5-2.1,1.5-3.7c0-1.4-0.3-2.3-1-2.7c-0.6-0.4-1.9-0.7-3.9-0.7H183L183.1,13.1L183.1,13.1z"/>
	<path class="st0" d="M200.1,27.2v-26h16.2v3.5h-11V12h9.3v3.2h-9.3v8.5h12v3.5L200.1,27.2L200.1,27.2z"/>
	<path class="st0" d="M219.1,27.2l7.9-26h5.2l7.8,26h-5.4l-2-6.6H225l-2,6.6H219.1z M225.9,17.3h5.7l-2.9-9.5L225.9,17.3z"/>
	<g>
		<g>
			<path class="st1" d="M11.1,2.1c0.7,0,1.4-0.6,1.4-1.4V0.4H7.8L6.2,1.8C6.4,2,6.7,2.1,7.1,2.1H11.1z"/>
			<path class="st1" d="M15.3,2.1h4c0.7,0,1.4-0.6,1.4-1.4V0.4h-6.7v0.3C13.9,1.5,14.5,2.1,15.3,2.1z"/>
			<path class="st1" d="M23.4,2.1h4c0.6,0,1.2-0.4,1.3-1.1c-2-0.8-3.8-0.6-3.8-0.6h-2.9v0.3C22.1,1.5,22.7,2.1,23.4,2.1z"/>
			<path class="st1" d="M53.4,0.8V0.2L52,2.1h0C52.8,2.1,53.4,1.5,53.4,0.8z"/>
			<path class="st1" d="M56.2,2.1h4c0.7,0,1.4-0.6,1.4-1.4V0h-6.7v0.8C54.8,1.5,55.4,2.1,56.2,2.1z"/>
			<path class="st1" d="M4,3.6L0,7l4.3,0V4.4C4.3,4.1,4.2,3.8,4,3.6z"/>
			<path class="st1" d="M11.1,3h-4C6.3,3,5.7,3.6,5.7,4.4V7l6.7,0V4.4C12.5,3.6,11.9,3,11.1,3z"/>
			<path class="st1" d="M19.3,3h-4c-0.7,0-1.4,0.6-1.4,1.4V7l6.7,0V4.4C20.6,3.6,20.1,3,19.3,3z"/>
			<path class="st1" d="M28.8,8.4v-4c0-0.7-0.6-1.4-1.4-1.4h-4c-0.7,0-1.4,0.6-1.4,1.4V7h1.8c0,0,1.2-0.1,2.2,0.7
				c0.2,0.2,0.8,0.9,1.5,2.1C28.3,9.6,28.8,9.1,28.8,8.4z"/>
			<path class="st1" d="M30.3,4.4v4c0,0.7,0.6,1.4,1.4,1.4h4c0.2,0,0.4,0,0.6-0.1l-3.5-5.3c-0.3-0.5-0.7-0.9-1-1.3h-0.1
				C30.9,3,30.3,3.6,30.3,4.4z"/>
			<path class="st1" d="M48,9.8h4c0.7,0,1.4-0.6,1.4-1.4v-4C53.4,3.6,52.8,3,52,3h-0.6L47,9.3C47.2,9.6,47.6,9.8,48,9.8z"/>
			<path class="st1" d="M56.2,3c-0.7,0-1.4,0.6-1.4,1.4v4c0,0.7,0.5,1.3,1.2,1.3c1.8-2.5,3.4-4.9,4.7-6.6C60.6,3.1,60.4,3,60.2,3
				C60.2,3,56.2,3,56.2,3z"/>
			<path class="st1" d="M37,16v-4c0-0.7-0.6-1.4-1.4-1.4h-4c-0.7,0-1.4,0.6-1.4,1.4v1.7c0.8,1.2,1.6,2.5,2.3,3.7h3
				C36.4,17.4,37,16.8,37,16z"/>
			<path class="st1" d="M39.8,17.4h4c0.7,0,1.4-0.6,1.4-1.4v-4c0,0,0-0.1,0-0.1L42,16.5c-0.7,0.7-1.3,0-1.3,0L38.5,13v3
				C38.5,16.8,39.1,17.4,39.8,17.4z"/>
			<path class="st1" d="M52,10.6h-4c-0.7,0-1.4,0.6-1.4,1.4v4c0,0.7,0.6,1.4,1.4,1.4h2.7c0.9-1.2,1.8-2.5,2.7-3.9V12
				C53.4,11.3,52.8,10.6,52,10.6z"/>
			<path class="st1" d="M37,19.6c0-0.7-0.6-1.4-1.4-1.4h-2.5c1.6,2.5,3,4.8,3.7,5.9C37,24,37,23.9,37,23.7C37,23.7,37,19.6,37,19.6z
				"/>
			<path class="st1" d="M43.8,18.3h-4c-0.7,0-1.4,0.6-1.4,1.4v4c0,0.7,0.6,1.4,1.4,1.4h4c0.7,0,1.4-0.6,1.4-1.4v-4
				C45.2,18.9,44.6,18.3,43.8,18.3z"/>
			<path class="st1" d="M46.6,19.6V23c0.8-1.2,2-2.9,3.4-4.8h-2C47.2,18.3,46.6,18.9,46.6,19.6z"/>
			<path class="st1" d="M39.8,25.9c-0.4,0-0.8,0.2-1,0.5c2.4,1.9,4.4,0.7,5.6-0.4c-0.1-0.1-0.3-0.1-0.5-0.1L39.8,25.9L39.8,25.9z"/>
		</g>
		<g>
			<path class="st2" d="M4.3,16v-3.3c-2.5,0-4.2,0-4.2,0v4.6h2.9C3.7,17.4,4.3,16.8,4.3,16z"/>
			<path class="st2" d="M7.1,17.4h4c0.7,0,1.4-0.6,1.4-1.4v-3.3c-2.3,0-4.7,0-6.7,0V16C5.7,16.8,6.3,17.4,7.1,17.4z"/>
			<path class="st2" d="M15.3,17.4h4c0.7,0,1.4-0.6,1.4-1.4v-3.3c-1.8,0-4.2,0-6.7,0V16C13.9,16.8,14.5,17.4,15.3,17.4z"/>
			<path class="st2" d="M23.4,17.4h4c0.7,0,1.4-0.6,1.4-1.4v-0.7l-2.2-3.5c0,0-1,1-2.5,1c-0.1,0-0.8,0-2,0V16
				C22.1,16.8,22.7,17.4,23.4,17.4z"/>
			<path class="st2" d="M4.3,19.6c0-0.7-0.6-1.4-1.4-1.4H0.1v2.4l4.1,3.5c0-0.1,0.1-0.3,0.1-0.4V19.6z"/>
			<path class="st2" d="M11.1,18.3h-4c-0.7,0-1.4,0.6-1.4,1.4v4c0,0.7,0.6,1.4,1.4,1.4h0.8v-5.7c0,0,1.9,0,4.6,0
				C12.3,18.7,11.7,18.3,11.1,18.3z"/>
			<path class="st2" d="M19.3,18.3h-4c-0.6,0-1.1,0.4-1.3,1c2.1,0,4.5,0,6.6,0C20.4,18.7,19.9,18.3,19.3,18.3z"/>
			<path class="st2" d="M23.4,18.3c-0.6,0-1.1,0.4-1.3,1c0.8,0,1.6,0,2.3,0c1.6,0,2.9-0.3,3.8-0.8c-0.2-0.1-0.4-0.2-0.7-0.2
				L23.4,18.3L23.4,18.3z"/>
			<path class="st2" d="M6.5,26l1.3,1.1v-1.3H7.1C6.9,25.9,6.7,26,6.5,26z"/>
		</g>
	</g>
</g>
</svg>
