<?xml version="1.0" encoding="utf-8"?>
<!-- Generator: Adobe Illustrator 25.3.1, SVG Export Plug-In . SVG Version: 6.00 Build 0)  -->
<svg version="1.1" id="레이어_1" xmlns="http://www.w3.org/2000/svg" xmlns:xlink="http://www.w3.org/1999/xlink" x="0px"
	 y="0px" viewBox="0 0 62 27.6" style="enable-background:new 0 0 62 27.6;" xml:space="preserve">
<style type="text/css">
	.st0{fill:#D51C29;}
	.st1{fill:#24338A;}
</style>
<g>
	<g>
		<path class="st0" d="M11.2,2.1c0.8,0,1.4-0.6,1.4-1.4V0.5H7.8L6.2,1.8C6.5,2,6.8,2.1,7.1,2.1H11.2z"/>
		<path class="st0" d="M15.4,2.1h4.1c0.7,0,1.4-0.6,1.4-1.4V0.5H14v0.3C14,1.5,14.6,2.1,15.4,2.1z"/>
		<path class="st0" d="M23.6,2.1h4.1c0.6,0,1.2-0.5,1.3-1.1c-2-0.8-3.8-0.6-3.8-0.6h-2.9v0.3C22.3,1.5,22.9,2.1,23.6,2.1z"/>
		<path class="st0" d="M53.8,0.8V0.2l-1.4,1.9h0C53.1,2.1,53.8,1.5,53.8,0.8z"/>
		<path class="st0" d="M56.6,2.1h4.1c0.7,0,1.4-0.6,1.4-1.4V0h-6.8v0.8C55.2,1.5,55.8,2.1,56.6,2.1z"/>
		<path class="st0" d="M4.1,3.6L0,7.1l4.3,0V4.4C4.3,4.1,4.2,3.8,4.1,3.6z"/>
		<path class="st0" d="M11.2,3H7.1C6.4,3,5.8,3.6,5.8,4.4v2.7l6.8,0V4.4C12.6,3.6,12,3,11.2,3z"/>
		<path class="st0" d="M19.4,3h-4.1C14.6,3,14,3.6,14,4.4V7l6.8,0V4.4C20.8,3.6,20.2,3,19.4,3z"/>
		<path class="st0" d="M29,8.5V4.4C29,3.6,28.4,3,27.7,3h-4.1c-0.7,0-1.4,0.6-1.4,1.4V7l1.8,0c0,0,1.2-0.1,2.3,0.7
			c0.2,0.2,0.8,0.9,1.5,2.1C28.5,9.7,29,9.1,29,8.5z"/>
		<path class="st0" d="M30.5,4.4v4.1c0,0.8,0.6,1.4,1.4,1.4h4.1c0.2,0,0.4,0,0.6-0.1L33,4.4c-0.3-0.5-0.7-0.9-1-1.3h-0.1
			C31.1,3,30.5,3.6,30.5,4.4z"/>
		<path class="st0" d="M48.3,9.8h4.1c0.7,0,1.4-0.6,1.4-1.4V4.4c0-0.7-0.6-1.4-1.4-1.4h-0.6l-4.4,6.3C47.6,9.6,47.9,9.8,48.3,9.8z"
			/>
		<path class="st0" d="M56.6,3c-0.8,0-1.4,0.6-1.4,1.4v4.1c0,0.7,0.5,1.3,1.2,1.3c1.8-2.5,3.5-4.9,4.7-6.7C61,3.1,60.8,3,60.6,3
			H56.6z"/>
		<path class="st0" d="M37.3,16.1v-4.1c0-0.8-0.6-1.4-1.4-1.4h-4.1c-0.8,0-1.4,0.6-1.4,1.4v1.7c0.8,1.2,1.6,2.5,2.4,3.7h3.1
			C36.7,17.5,37.3,16.9,37.3,16.1z"/>
		<path class="st0" d="M40.1,17.5h4.1c0.7,0,1.4-0.6,1.4-1.4v-4.1c0,0,0-0.1,0-0.1l-3.2,4.6c-0.7,0.7-1.3,0-1.3,0l-2.3-3.5v3
			C38.7,16.9,39.3,17.5,40.1,17.5z"/>
		<path class="st0" d="M52.4,10.7h-4.1c-0.7,0-1.4,0.6-1.4,1.4v4.1c0,0.7,0.6,1.4,1.4,1.4H51c0.9-1.2,1.8-2.6,2.7-3.9v-1.5
			C53.8,11.3,53.1,10.7,52.4,10.7z"/>
		<path class="st0" d="M37.3,19.8c0-0.8-0.6-1.4-1.4-1.4h-2.5c1.6,2.6,3,4.9,3.7,6c0.1-0.2,0.1-0.4,0.1-0.5V19.8z"/>
		<path class="st0" d="M44.2,18.4h-4.1c-0.7,0-1.4,0.6-1.4,1.4v4.1c0,0.8,0.6,1.4,1.4,1.4h4.1c0.7,0,1.4-0.6,1.4-1.4v-4.1
			C45.5,19,44.9,18.4,44.2,18.4z"/>
		<path class="st0" d="M47,19.8v3.4c0.8-1.2,2-2.9,3.4-4.8h-2C47.6,18.4,47,19,47,19.8z"/>
		<path class="st0" d="M40.1,26.1c-0.4,0-0.8,0.2-1,0.5c2.4,1.9,4.5,0.7,5.6-0.4c-0.2-0.1-0.3-0.1-0.5-0.1H40.1z"/>
	</g>
	<g>
		<path class="st1" d="M4.3,16.1v-3.3c-2.5,0-4.2,0-4.2,0v4.7H3C3.7,17.5,4.3,16.9,4.3,16.1z"/>
		<path class="st1" d="M7.1,17.5h4.1c0.8,0,1.4-0.6,1.4-1.4v-3.3c-2.4,0-4.7,0-6.8,0v3.3C5.8,16.9,6.4,17.5,7.1,17.5z"/>
		<path class="st1" d="M15.4,17.5h4.1c0.7,0,1.4-0.6,1.4-1.4v-3.3c-1.9,0-4.3,0-6.8,0v3.3C14,16.9,14.6,17.5,15.4,17.5z"/>
		<path class="st1" d="M23.6,17.5h4.1c0.7,0,1.4-0.6,1.4-1.4v-0.8l-2.2-3.5c0,0-1,1-2.5,1c-0.1,0-0.8,0-2,0v3.3
			C22.3,16.9,22.9,17.5,23.6,17.5z"/>
		<path class="st1" d="M4.3,19.8c0-0.8-0.6-1.4-1.4-1.4H0.1v2.4l4.1,3.5c0.1-0.1,0.1-0.3,0.1-0.5V19.8z"/>
		<path class="st1" d="M11.2,18.4H7.1c-0.7,0-1.4,0.6-1.4,1.4v4.1c0,0.8,0.6,1.4,1.4,1.4h0.8v-5.8c0,0,1.9,0,4.6,0
			C12.4,18.8,11.8,18.4,11.2,18.4z"/>
		<path class="st1" d="M19.4,18.4h-4.1c-0.6,0-1.1,0.4-1.3,1c2.1,0,4.5,0,6.7,0C20.6,18.8,20.1,18.4,19.4,18.4z"/>
		<path class="st1" d="M23.6,18.4c-0.6,0-1.1,0.4-1.3,1c0.8,0,1.6,0,2.3,0c1.6,0,2.9-0.4,3.8-0.8c-0.2-0.1-0.5-0.2-0.7-0.2H23.6z"/>
		<path class="st1" d="M6.6,26.2l1.4,1.1v-1.3H7.1C6.9,26.1,6.7,26.1,6.6,26.2z"/>
	</g>
</g>
</svg>
